<svg width="47" height="36" viewBox="0 0 47 36" fill="none" xmlns="http://www.w3.org/2000/svg">
<g clip-path="url(#clip0_141_2641)">
<path d="M45.7969 0.971191H17.3844V19.9729H29.5956L28.6532 26.3472H34.4279L33.3853 19.9729H45.7969V0.971191Z" fill="white"/>
<path d="M19.8507 11.6561C19.8507 13.9225 18.7679 15.9461 17.0836 17.2008C15.9407 18.0709 14.517 18.5768 12.9731 18.5768C9.18343 18.5768 6.1156 15.4807 6.1156 11.6561C6.1156 7.83147 9.18343 4.73535 12.9731 4.73535C14.517 4.73535 15.9407 5.24125 17.0836 6.11141C18.7679 7.38628 19.8507 9.38965 19.8507 11.6561Z" fill="#30C4C1"/>
<path d="M0.962402 35.0289C0.962402 28.3307 6.35617 22.8872 12.9931 22.8872C19.6301 22.8872 25.0238 28.3307 25.0238 35.0289H0.962402Z" fill="#30C4C1"/>
<path d="M45.4561 0H17.6451C16.8029 0 16.1212 0.688027 16.1212 1.53794V4.4317C15.1387 3.98651 14.0759 3.74368 12.9932 3.74368C8.68218 3.74368 5.17322 7.28499 5.17322 11.6357C5.17322 15.9865 8.68218 19.5278 12.9932 19.5278C14.096 19.5278 15.1387 19.285 16.1212 18.8398V19.6088C16.1212 20.4587 16.8029 21.1467 17.6451 21.1467H28.3524L27.791 25.2749H25.8259C25.2846 25.2749 24.8635 25.7201 24.8635 26.2462C24.8635 26.7723 25.3046 27.2175 25.8259 27.2175H37.2952C37.8366 27.2175 38.2577 26.7723 38.2577 26.2462C38.2577 25.7201 37.8166 25.2749 37.2952 25.2749H35.3302L34.7688 21.1467H45.4761C46.3183 21.1467 47 20.4587 47 19.6088V1.53794C47 0.688027 46.3183 0 45.4761 0H45.4561ZM33.666 19.2243H18.0661V17.6661C18.2666 17.5042 18.407 17.3019 18.5674 17.1197C18.7479 16.9376 18.9484 16.7555 19.1088 16.5531C19.3093 16.3103 19.4697 16.027 19.6301 15.7639C19.7705 15.5413 19.9309 15.3187 20.0512 15.0759C20.1916 14.7723 20.2918 14.4486 20.3921 14.1248C20.4723 13.882 20.5725 13.6796 20.6327 13.4368C20.753 12.8702 20.8332 12.2631 20.8332 11.6762C20.8332 11.0894 20.753 10.4823 20.6327 9.91568C20.5725 9.69309 20.4723 9.47049 20.4121 9.24789C20.3119 8.92411 20.2116 8.5801 20.0512 8.25632C19.9309 8.01349 19.7905 7.81113 19.6502 7.58853C19.4898 7.30523 19.3093 7.02192 19.1088 6.75885C18.9484 6.55649 18.7679 6.3946 18.5875 6.21248C18.407 6.03035 18.2666 5.82799 18.0661 5.64587V1.94266H45.0751V19.2243H33.666ZM18.7278 13.0523C18.407 14.3879 17.6451 15.5818 16.5222 16.4317C15.4996 17.2007 14.2765 17.6054 12.9932 17.6054C9.74489 17.6054 7.09813 14.9342 7.09813 11.656C7.09813 8.37774 9.74489 5.70658 12.9932 5.70658C14.2765 5.70658 15.4996 6.1113 16.5222 6.88027C18.026 8.01349 18.8882 9.75379 18.8882 11.656C18.8882 12.1214 18.8281 12.5868 18.7278 13.032V13.0523ZM32.8238 21.1872L33.3853 25.3153H29.756L30.3174 21.1872H32.8238Z" fill="#29414A"/>
<path d="M12.9932 21.9155C5.8349 21.9155 0 27.8042 0 35.0285C0 35.5749 0.441126 35.9998 0.962457 35.9998C1.48379 35.9998 1.92491 35.5546 1.92491 35.0285C1.92491 28.8767 6.87756 23.8582 12.9932 23.8582C19.1088 23.8582 24.0614 28.8565 24.0614 35.0285C24.0614 35.5749 24.5026 35.9998 25.0239 35.9998C25.5452 35.9998 25.9863 35.5546 25.9863 35.0285C25.9863 27.8042 20.1514 21.9155 12.9932 21.9155Z" fill="#29414A"/>
</g>
<defs>
<clipPath id="clip0_141_2641">
<rect width="47" height="36" fill="white"/>
</clipPath>
</defs>
</svg>
