<svg width="46" height="43" viewBox="0 0 46 43" fill="none" xmlns="http://www.w3.org/2000/svg">
<g clip-path="url(#clip0_141_2659)">
<path d="M45.007 43.0002H1.86429C1.31715 43.0002 0.871338 42.5623 0.871338 42.0248C0.871338 41.4873 1.31715 41.0493 1.86429 41.0493H45.007C45.5542 41.0493 46 41.4873 46 42.0248C46 42.5623 45.5542 43.0002 45.007 43.0002Z" fill="#29414A"/>
<path d="M13.7594 30.7373H5.95764V42.0248H13.7594V30.7373Z" fill="#30C4C1"/>
<path d="M13.7594 43.0001H5.95767C5.41054 43.0001 4.96472 42.5622 4.96472 42.0247V30.7372C4.96472 30.1997 5.41054 29.7617 5.95767 29.7617H13.7594C14.3066 29.7617 14.7524 30.1997 14.7524 30.7372V42.0247C14.7524 42.5622 14.3066 43.0001 13.7594 43.0001ZM6.93036 41.0492H12.7665V31.7126H6.93036V41.0492Z" fill="#29414A"/>
<path d="M27.3366 24.1479H19.5348V42.0248H27.3366V24.1479Z" fill="#30C4C1"/>
<path d="M27.3568 43.0001H19.5551C19.0079 43.0001 18.5621 42.5622 18.5621 42.0247V24.1478C18.5621 23.6103 19.0079 23.1724 19.5551 23.1724H27.3568C27.904 23.1724 28.3498 23.6103 28.3498 24.1478V42.0247C28.3498 42.5622 27.904 43.0001 27.3568 43.0001ZM20.5278 41.0492H26.3639V25.1034H20.5278V41.0492Z" fill="#29414A"/>
<path d="M40.9338 15.2295H33.1321V42.0249H40.9338V15.2295Z" fill="#30C4C1"/>
<path d="M40.9339 43.0002H33.1321C32.585 43.0002 32.1392 42.5622 32.1392 42.0247V15.2294C32.1392 14.6919 32.585 14.2539 33.1321 14.2539H40.9339C41.481 14.2539 41.9268 14.6919 41.9268 15.2294V42.0247C41.9268 42.5622 41.481 43.0002 40.9339 43.0002ZM34.1251 41.0493H39.9612V16.2048H34.1251V41.0493Z" fill="#29414A"/>
<path d="M0.993041 26.9948C0.668812 26.9948 0.344583 26.8356 0.14194 26.5369C-0.141761 26.0791 8.9339e-05 25.4818 0.466169 25.2031L39.7992 1.155C40.2653 0.876292 40.8732 1.01564 41.1569 1.47351C41.4406 1.93138 41.2988 2.52861 40.8327 2.80731L1.51991 26.8555C1.3578 26.955 1.17542 26.9948 0.993041 26.9948Z" fill="#29414A"/>
<path d="M38.4819 8.91875C38.4819 8.91875 38.2793 8.91875 38.1982 8.87893C37.6713 8.71967 37.3876 8.18217 37.5295 7.66458L39.0493 2.76736L33.9022 1.95115C33.355 1.87152 32.9903 1.37384 33.0916 0.83634C33.1929 0.29884 33.6995 -0.0594937 34.2264 0.0400433L40.4881 1.03541C40.7718 1.07523 41.015 1.23449 41.1771 1.47338C41.3189 1.71227 41.3595 2.01088 41.2784 2.26967L39.4343 8.22199C39.3128 8.64004 38.9075 8.91875 38.4819 8.91875Z" fill="#29414A"/>
</g>
<defs>
<clipPath id="clip0_141_2659">
<rect width="46" height="43" fill="white"/>
</clipPath>
</defs>
</svg>
