<svg width="46" height="52" viewBox="0 0 46 52" fill="none" xmlns="http://www.w3.org/2000/svg">
<g clip-path="url(#clip0_141_2650)">
<path d="M8.64905 50.8508V42.0598H19.6477V33.2487H30.6464V24.4375H41.6451V50.8508H8.64905Z" fill="#30C4C1"/>
<path d="M41.645 23.3081H30.6464C30.0185 23.3081 29.5121 23.8122 29.5121 24.4372V32.0991H19.6477C19.0198 32.0991 18.5134 32.6032 18.5134 33.2282V40.8901H8.64901C8.02109 40.8901 7.51471 41.3942 7.51471 42.0192V50.8304C7.51471 51.4554 8.02109 51.9595 8.64901 51.9595C9.27693 51.9595 9.78331 51.4554 9.78331 50.8304V43.1685H19.6477C20.2756 43.1685 20.782 42.6644 20.782 42.0394V34.3775H30.6464C31.2743 34.3775 31.7807 33.8734 31.7807 33.2484V25.5865H41.645C42.273 25.5865 42.7794 25.0824 42.7794 24.4574C42.7794 23.8323 42.273 23.3283 41.645 23.3283V23.3081Z" fill="#29414A"/>
<path d="M27.446 20.5259C27.3853 21.151 27.8511 21.7155 28.4588 21.776H28.5803C29.1677 21.776 29.6539 21.3526 29.7146 20.7679L30.302 14.8601C30.302 14.8601 30.302 14.7593 30.302 14.719C30.302 14.6182 30.302 14.5174 30.2615 14.4166C30.2615 14.3561 30.2008 14.3157 30.1805 14.2754C30.14 14.1948 30.1197 14.1141 30.059 14.0335C29.9982 13.9528 29.9172 13.9125 29.8362 13.852C29.7957 13.8318 29.7551 13.7714 29.7146 13.7512C29.6134 13.7109 29.5121 13.6705 29.4108 13.6504C29.3703 13.6504 29.3298 13.61 29.2893 13.61L23.3544 13.0253C22.7468 12.9648 22.1594 13.4286 22.0986 14.0536C22.0784 14.3561 22.1594 14.6585 22.3417 14.8803C22.5442 15.1223 22.8075 15.2634 23.1114 15.2836L26.2915 15.586L0.425338 36.757C0.182273 36.9586 0.0404857 37.2208 0.0202303 37.5232C-2.51271e-05 37.8256 0.0809964 38.1281 0.28355 38.3499C0.50636 38.612 0.830446 38.7733 1.17479 38.7733C1.43811 38.7733 1.70143 38.6725 1.90398 38.5112L27.7904 17.3402L27.4865 20.5057L27.446 20.5259Z" fill="#29414A"/>
<path d="M30.7274 5.44397C32.5504 5.44397 34.029 7.17798 34.029 9.31524C34.029 9.59752 34.2721 9.83947 34.5557 9.83947C34.8392 9.83947 35.0823 9.59752 35.0823 9.31524C35.0823 7.17798 36.5609 5.44397 38.3839 5.44397C38.6675 5.44397 38.9106 5.20202 38.9106 4.91974C38.9106 4.63746 38.6675 4.3955 38.3839 4.3955C36.5609 4.3955 35.0823 2.6615 35.0823 0.524234C35.0823 0.241954 34.8392 0 34.5557 0C34.2721 0 34.029 0.241954 34.029 0.524234C34.029 2.6615 32.5504 4.3955 30.7274 4.3955C30.4438 4.3955 30.2007 4.63746 30.2007 4.91974C30.2007 5.20202 30.4438 5.44397 30.7274 5.44397Z" fill="#29414A"/>
<path d="M45.4733 13.3278C44.0757 13.3278 42.9212 11.9769 42.9212 10.3236C42.9212 10.0413 42.6781 9.79932 42.3945 9.79932C42.1109 9.79932 41.8679 10.0413 41.8679 10.3236C41.8679 11.9769 40.7133 13.3278 39.3157 13.3278C39.0321 13.3278 38.7891 13.5698 38.7891 13.852C38.7891 14.1343 39.0321 14.3763 39.3157 14.3763C40.7133 14.3763 41.8679 15.7272 41.8679 17.3805C41.8679 17.6628 42.1109 17.9048 42.3945 17.9048C42.6781 17.9048 42.9212 17.6628 42.9212 17.3805C42.9212 15.7272 44.0757 14.3763 45.4733 14.3763C45.7569 14.3763 46 14.1343 46 13.852C46 13.5698 45.7569 13.3278 45.4733 13.3278Z" fill="#29414A"/>
</g>
<defs>
<clipPath id="clip0_141_2650">
<rect width="46" height="52" fill="white"/>
</clipPath>
</defs>
</svg>
